<?xml version="1.0" encoding="utf-8"?>
<!-- Generator: Adobe Illustrator 23.0.3, SVG Export Plug-In . SVG Version: 6.00 Build 0)  -->
<svg version="1.1" id="Layer_1" xmlns="http://www.w3.org/2000/svg" xmlns:xlink="http://www.w3.org/1999/xlink" x="0px" y="0px"
	 viewBox="0 0 166.8 38.2" style="enable-background:new 0 0 166.8 38.2;" xml:space="preserve">
<style type="text/css">
	.st0{fill:url(#SVGID_1_);}
	.st1{fill:url(#SVGID_2_);}
	.st2{fill:none;}
	.st3{fill:#D82427;}
	.st4{fill:#109FDA;}
	.st5{fill:url(#SVGID_3_);}
	.st6{fill:#2DAF4A;}
</style>
<g>
	<g>
		<path d="M56.9,17.2c0,0.9-0.3,1.7-0.9,2.2s-1.4,0.8-2.4,0.8h-6V25h-0.7V12.8h6.7c1,0,1.8,0.3,2.4,0.8c0.5,0.5,0.8,1,0.8,1.6
			L56.9,17.2L56.9,17.2z M56.2,17.2v-2c0-0.5-0.2-1-0.7-1.4c-0.5-0.4-1.1-0.5-1.8-0.5h-6v6.2h6c0.8,0,1.5-0.2,1.9-0.6
			C56,18.6,56.2,18,56.2,17.2z"/>
		<path d="M48,25.3h-1.3V12.5h7c1,0,1.9,0.3,2.6,0.8c0.6,0.5,1,1.1,1,1.8v2.1c0,1-0.3,1.8-1,2.4c-0.6,0.5-1.5,0.8-2.6,0.8H48V25.3z
			 M47.3,24.7L47.3,24.7l0.1-11.6h-0.1V24.7z M48,19.2h5.7c0.7,0,1.3-0.2,1.7-0.5c0.3-0.3,0.5-0.8,0.5-1.5v-2c0-0.5-0.2-0.8-0.6-1.1
			c-0.4-0.3-0.9-0.5-1.6-0.5H48V19.2z M55.8,13.7c0.5,0.4,0.7,0.9,0.7,1.5v2c0,0.8-0.2,1.4-0.7,1.9c0.5-0.4,0.7-1.1,0.7-1.9v-2.1
			C56.6,14.6,56.3,14.2,55.8,13.7C55.8,13.8,55.8,13.7,55.8,13.7z"/>
	</g>
	<g>
		<path d="M68.2,22.5c0,0.8-0.2,1.4-0.7,1.8C67,24.8,66.1,25,65,25h-2.3c-1.1,0-1.9-0.2-2.4-0.6c-0.5-0.4-0.8-1-0.8-1.8v-6.7h0.6
			v6.7c0,1.3,0.9,1.9,2.6,1.9H65c1.7,0,2.6-0.6,2.6-1.9v-6.8h0.6V22.5z"/>
		<path d="M65,25.3h-2.3c-1.2,0-2.1-0.2-2.6-0.7c-0.6-0.5-0.9-1.2-0.9-2.1v-7.1h1.3v7.1c0,0.7,0.2,1.6,2.3,1.6H65
			c2,0,2.3-0.9,2.3-1.6v-7.1h1.3v7.1c0,0.9-0.3,1.6-0.8,2.1C67.1,25.1,66.2,25.3,65,25.3z"/>
	</g>
	<g>
		<path d="M75.4,16.3h-0.8c-0.6,0-1.1,0.2-1.5,0.5c-0.4,0.4-0.7,0.9-0.7,1.6V25h-0.6v-6.6c0-0.8,0.3-1.5,0.8-1.9s1.2-0.7,2-0.7h0.7
			C75.4,15.8,75.4,16.3,75.4,16.3z"/>
		<path d="M72.7,25.3h-1.3v-6.9c0-1,0.3-1.7,0.9-2.2c0.6-0.5,1.3-0.7,2.3-0.7h1v1.2h-1.1c-0.5,0-0.9,0.1-1.3,0.4
			c-0.4,0.3-0.5,0.8-0.5,1.3C72.7,18.4,72.7,25.3,72.7,25.3z"/>
	</g>
	<g>
		<path d="M86,25h-5.3c-1.1,0-2-0.2-2.5-0.6c-0.5-0.4-0.8-1.1-0.8-2v-3.9c0-1,0.2-1.7,0.7-2.1c0.5-0.4,1.3-0.6,2.5-0.6h2.5
			c1.1,0,1.8,0.2,2.2,0.6c0.4,0.4,0.6,1.1,0.6,2.2v0.2l-8,3.1v0.4c0,0.8,0.2,1.4,0.5,1.7c0.4,0.3,1,0.5,1.9,0.5H86V25z M85.3,18.5
			c0-0.2,0-0.3,0-0.4c0-0.5-0.2-1-0.6-1.3c-0.4-0.3-1.1-0.5-1.9-0.5h-2.1c-1,0-1.7,0.2-2.1,0.5c-0.4,0.3-0.6,0.8-0.6,1.5v3
			L85.3,18.5z"/>
		<path d="M86.3,25.3h-5.7c-1.2,0-2.1-0.2-2.7-0.7c-0.6-0.5-0.9-1.2-0.9-2.2v-3.9c0-1.1,0.3-1.8,0.8-2.3c0.5-0.5,1.4-0.7,2.7-0.7
			h2.5c1.2,0,2,0.2,2.5,0.7c0.5,0.5,0.7,1.3,0.7,2.4V19l-8,3.1v0.2c0,0.7,0.1,1.2,0.4,1.5c0.3,0.3,0.9,0.4,1.7,0.4h5.9L86.3,25.3
			L86.3,25.3z M80.8,16.7c-0.9,0-1.5,0.1-1.9,0.4c-0.3,0.2-0.5,0.6-0.5,1.2v2.5l6.7-2.6c0-0.1,0-0.1,0-0.2c0-0.4-0.2-0.8-0.5-1
			c-0.4-0.3-0.9-0.4-1.7-0.4L80.8,16.7L80.8,16.7z M85.7,18.4C85.7,18.4,85.7,18.5,85.7,18.4l0,0.2l0,0
			C85.7,18.5,85.7,18.5,85.7,18.4z M84.4,16.2c0.2,0.1,0.4,0.2,0.5,0.3c0.2,0.1,0.3,0.3,0.4,0.4c-0.1-0.1-0.1-0.2-0.2-0.3
			C85,16.5,84.7,16.3,84.4,16.2z"/>
	</g>
	<g>
		<path d="M97.5,13.4h-5.6c-1.8,0-2.6,0.7-2.6,2.2v0.9c0,1.3,0.9,2,2.8,2h2.1c1.1,0,1.9,0.2,2.5,0.7c0.6,0.5,0.9,1.1,0.9,2v1.2
			c0,0.8-0.2,1.5-0.7,1.9c-0.6,0.5-1.4,0.7-2.7,0.7h-5.6v-0.6h5.6c1,0,1.7-0.2,2.1-0.5s0.6-0.8,0.6-1.5v-1.2c0-1.4-0.9-2.1-2.7-2.1
			H92c-2.4,0-3.5-0.8-3.5-2.5v-1c0-0.9,0.3-1.6,0.9-2.1s1.4-0.7,2.4-0.7h5.6L97.5,13.4L97.5,13.4z"/>
		<path d="M94.1,25.3h-5.9v-1.3h5.9c0.9,0,1.5-0.2,1.9-0.4c0.3-0.3,0.5-0.7,0.5-1.2v-1.2c0-0.8-0.2-1.7-2.3-1.7H92
			c-3.2,0-3.9-1.5-3.9-2.9v-1c0-1,0.4-1.8,1.1-2.3c0.7-0.5,1.6-0.8,2.6-0.8h5.9v1.3h-6c-2.1,0-2.3,1-2.3,1.8v0.9
			c0,0.7,0.3,1.7,2.5,1.7h2.1c1.1,0,2,0.3,2.7,0.8c0.7,0.5,1,1.3,1,2.2v1.2c0,0.9-0.3,1.6-0.8,2.1C96.4,25,95.4,25.3,94.1,25.3z
			 M95.9,19.1c1,0.5,1.2,1.3,1.2,2.1v1.2c0,0.7-0.3,1.3-0.7,1.7c-0.1,0-0.1,0.1-0.2,0.1c0.1-0.1,0.3-0.2,0.4-0.3
			c0.4-0.4,0.6-0.9,0.6-1.7v-1.2c0-0.7-0.3-1.3-0.8-1.7C96.3,19.3,96.1,19.2,95.9,19.1z M89.3,14c-0.3,0.4-0.5,0.9-0.5,1.6v1
			c0,1.3,0.8,2,2.5,2.2c-2-0.2-2.4-1.3-2.4-2.3v-0.9C88.9,15,89,14.5,89.3,14z"/>
	</g>
	<g>
		<path d="M109,22.4c0,1-0.2,1.6-0.7,2c-0.5,0.4-1.2,0.6-2.2,0.6h-2.5c-1,0-1.8-0.2-2.3-0.6c-0.5-0.4-0.7-1.1-0.7-1.9v-3.9
			c0-1,0.3-1.7,0.8-2.1c0.5-0.4,1.2-0.6,2.2-0.6h2.5c1.9,0,2.9,0.9,2.9,2.7V22.4z M108.4,22.6v-4.3c0-0.7-0.2-1.3-0.6-1.5
			c-0.4-0.3-1-0.4-1.7-0.4h-2.5c-1,0-1.6,0.2-1.9,0.5s-0.5,0.8-0.5,1.5v4.3c0,0.6,0.2,1.1,0.6,1.4c0.4,0.3,1,0.5,1.9,0.5h2.4
			c0.8,0,1.4-0.2,1.8-0.4C108.2,23.7,108.4,23.3,108.4,22.6z"/>
		<path d="M106.1,25.3h-2.5c-1.1,0-1.9-0.2-2.5-0.7c-0.6-0.5-0.9-1.2-0.9-2.2v-3.9c0-1.1,0.3-1.9,0.9-2.4c0.5-0.4,1.4-0.6,2.4-0.6
			h2.5c2.1,0,3.2,1,3.2,3v3.9c0,1-0.3,1.8-0.8,2.2C107.9,25.1,107.1,25.3,106.1,25.3z M103.6,16.7c-1.1,0-1.5,0.2-1.7,0.4
			c-0.3,0.2-0.4,0.7-0.4,1.3v4.3c0,0.5,0.2,0.9,0.5,1.2c0.3,0.3,0.9,0.4,1.7,0.4h2.4c0.8,0,1.3-0.1,1.6-0.4c0.3-0.2,0.4-0.6,0.4-1.2
			v-4.3c0-0.6-0.2-1-0.5-1.3c-0.3-0.3-0.9-0.4-1.5-0.4H103.6z"/>
	</g>
	<g>
		<path d="M116,16.3h-2.8V25h-0.6v-9.7c0-0.8,0.2-1.4,0.7-1.8c0.5-0.4,1.1-0.7,1.9-0.7h0.8v0.5h-0.8c-0.6,0-1.1,0.2-1.5,0.5
			c-0.4,0.3-0.6,0.8-0.6,1.4v0.6h2.8C116,15.8,116,16.3,116,16.3z"/>
		<path d="M113.5,25.3h-1.3V15.2c0-0.9,0.3-1.6,0.8-2.1c0.5-0.5,1.2-0.7,2.1-0.7h1.2v1.2h-1.1c-0.5,0-0.9,0.1-1.3,0.4
			c-0.3,0.3-0.5,0.7-0.5,1.1v0.3h2.8v1.2h-2.9V25.3z M113.4,13.7c-0.1,0.1-0.1,0.1-0.2,0.2C113.3,13.9,113.4,13.8,113.4,13.7z"/>
	</g>
	<g>
		<path d="M121.8,16.3h-2.9V25h-0.6V12.8h0.6v3h2.9V16.3z"/>
		<polygon points="119.2,25.3 117.9,25.3 117.9,12.5 119.2,12.5 119.2,15.5 122.1,15.5 122.1,16.7 119.2,16.7 		"/>
	</g>
	<g>
		<path d="M136.7,15.8l-2.9,8.6c-0.2,0.4-0.3,0.7-0.5,0.7c-0.2,0-0.3-0.2-0.5-0.6l-2.6-7.6l-2.6,7.6c-0.2,0.4-0.3,0.6-0.5,0.6
			c-0.2,0-0.4-0.2-0.6-0.6l-2.8-8.7h0.7l2.8,8.2l2.7-7.6c0.1-0.4,0.3-0.6,0.5-0.6c0.2,0,0.3,0.2,0.5,0.6l2.6,7.6l2.8-8.2H136.7z"/>
		<path d="M133.3,25.4c-0.5,0-0.7-0.6-0.8-0.8l-2.3-6.7l-2.3,6.7c-0.2,0.6-0.5,0.8-0.8,0.8c-0.4,0-0.7-0.3-0.8-0.9l-3-9.1h1.3
			l2.5,7.6l2.3-6.8c0.1-0.2,0.3-0.8,0.8-0.8c0.4,0,0.6,0.3,0.8,0.8l2.3,6.7l2.5-7.5h1.3l-3,9.1C134.1,24.7,133.8,25.4,133.3,25.4z
			 M124.9,18.7l1.8,5.7c0.1,0.2,0.1,0.3,0.2,0.3L124.9,18.7z"/>
	</g>
	<g>
		<path d="M147.9,22.5c0,0.9-0.2,1.5-0.7,1.9c-0.4,0.4-1.1,0.5-1.9,0.5h-3.2c-0.8,0-1.5-0.2-2-0.6s-0.8-1-0.8-1.7v-1.4
			c0-0.7,0.2-1.3,0.7-1.8c0.5-0.4,1.1-0.7,2-0.7h5.2v-0.6c0-0.6-0.2-1.1-0.6-1.4c-0.4-0.3-0.9-0.5-1.7-0.5h-5.7v-0.5h5.4
			c2.1,0,3.1,0.9,3.1,2.6L147.9,22.5L147.9,22.5z M147.3,22.6v-3.2H142c-0.6,0-1.1,0.2-1.5,0.5c-0.4,0.3-0.6,0.8-0.6,1.4v1.4
			c0,0.5,0.2,1,0.6,1.3c0.4,0.3,0.9,0.5,1.5,0.5h3.2c0.7,0,1.1-0.2,1.5-0.5C147.1,23.7,147.3,23.2,147.3,22.6z"/>
		<path d="M145.3,25.3h-3.2c-0.9,0-1.7-0.2-2.2-0.7c-0.6-0.5-0.9-1.1-0.9-2v-1.4c0-0.8,0.3-1.5,0.8-2c0.5-0.5,1.3-0.7,2.2-0.7h4.9
			v-0.3c0-0.5-0.2-0.9-0.5-1.2c-0.3-0.3-0.8-0.4-1.4-0.4h-6v-1.2h5.7c2.9,0,3.5,1.6,3.5,2.9v4.2c0,1-0.3,1.7-0.8,2.2
			C146.9,25.1,146.2,25.3,145.3,25.3z M142,19.7c-0.6,0-1,0.1-1.3,0.4c-0.3,0.3-0.5,0.6-0.5,1.1v1.4c0,0.5,0.2,0.8,0.5,1.1
			c0.3,0.3,0.8,0.4,1.3,0.4h3.2c0.6,0,1-0.1,1.3-0.4s0.4-0.6,0.4-1.1v-2.9L142,19.7L142,19.7z"/>
	</g>
	<g>
		<path d="M155.1,16.3h-0.8c-0.6,0-1.1,0.2-1.5,0.5c-0.5,0.4-0.7,0.9-0.7,1.6V25h-0.6v-6.6c0-0.8,0.3-1.5,0.8-1.9s1.2-0.7,2.1-0.7
			h0.7L155.1,16.3L155.1,16.3z"/>
		<path d="M152.4,25.3h-1.3v-6.9c0-0.9,0.3-1.7,0.9-2.2c0.6-0.5,1.3-0.7,2.3-0.7h1v1.2h-1.1c-0.5,0-0.9,0.1-1.3,0.4
			c-0.4,0.3-0.6,0.8-0.6,1.3L152.4,25.3L152.4,25.3z"/>
	</g>
	<g>
		<path d="M165.7,25h-5.3c-1.1,0-2-0.2-2.5-0.6c-0.5-0.4-0.8-1.1-0.8-2v-3.9c0-1,0.2-1.7,0.7-2.1c0.5-0.4,1.3-0.6,2.5-0.6h2.5
			c1.1,0,1.8,0.2,2.2,0.6c0.4,0.4,0.6,1.1,0.6,2.2v0.2l-8,3.1v0.4c0,0.8,0.2,1.4,0.5,1.7c0.4,0.3,1,0.5,1.9,0.5h5.5L165.7,25
			L165.7,25z M165,18.5c0-0.2,0-0.3,0-0.4c0-0.5-0.2-1-0.6-1.3c-0.4-0.3-1.1-0.5-1.9-0.5h-2.1c-1,0-1.7,0.2-2.1,0.5
			c-0.4,0.3-0.6,0.8-0.6,1.5v3L165,18.5z"/>
		<path d="M166,25.3h-5.7c-1.2,0-2.1-0.2-2.7-0.7c-0.6-0.5-0.9-1.2-0.9-2.2v-3.9c0-1.1,0.3-1.8,0.8-2.3c0.6-0.5,1.4-0.7,2.7-0.7h2.5
			c1.2,0,1.9,0.2,2.4,0.7c0.5,0.5,0.7,1.3,0.7,2.4V19l-8,3.1v0.2c0,0.7,0.1,1.2,0.4,1.5c0.3,0.3,0.9,0.4,1.7,0.4h5.9L166,25.3
			L166,25.3z M160.5,16.7c-0.9,0-1.6,0.1-1.9,0.4c-0.3,0.2-0.5,0.6-0.5,1.2v2.5l6.7-2.6c0-0.1,0-0.1,0-0.2c0-0.4-0.2-0.8-0.5-1
			c-0.4-0.3-0.9-0.4-1.7-0.4L160.5,16.7L160.5,16.7z M165.4,18.4C165.4,18.4,165.4,18.5,165.4,18.4l0,0.2l0,0
			C165.4,18.5,165.4,18.5,165.4,18.4z M164.1,16.2c0.2,0.1,0.4,0.2,0.5,0.3c0.2,0.1,0.3,0.3,0.4,0.4c-0.1-0.1-0.1-0.2-0.2-0.3
			C164.7,16.5,164.4,16.3,164.1,16.2z"/>
	</g>
	
		<linearGradient id="SVGID_1_" gradientUnits="userSpaceOnUse" x1="0.9652" y1="23.961" x2="19.1462" y2="26.6074" gradientTransform="matrix(1 0 0 -1 0 58.1911)">
		<stop  offset="0" style="stop-color:#004A67"/>
		<stop  offset="1" style="stop-color:#109FDA"/>
	</linearGradient>
	<path class="st0" d="M19.1,32.6c-6,0.3-11.6,2-16.5,4.6c0.2,0.3-0.8-1.5-0.8-1.5l-0.2-0.4C1,34.4,1.4,35,0.8,34
		c0.9-0.7,6.5-5.1,18.4-5.3"/>
	<g>
		
			<linearGradient id="SVGID_2_" gradientUnits="userSpaceOnUse" x1="15.6901" y1="39.8029" x2="22.6398" y2="56.7632" gradientTransform="matrix(1 0 0 -1 0 58.1911)">
			<stop  offset="0" style="stop-color:#D82427"/>
			<stop  offset="1" style="stop-color:#632322"/>
		</linearGradient>
		<path class="st1" d="M15,17.9c2.7-5.3,4.1-10.9,4.2-16.5c-0.4,0,1.7,0,1.7,0h0.5c1.1,0,0.3,0,1.5,0C23,2.4,24,9.4,18.3,19.8"/>
		<line class="st2" x1="21.8" y1="1.3" x2="25.8" y2="19"/>
		<path class="st3" d="M27.8,17.9c-2.7-5.3-4.1-10.9-4.3-16.5c0.4,0-1.7,0-1.7,0h-0.5c-1.1,0-0.3,0-1.5,0c-0.1,1.1-1.2,8.1,4.5,18.5
			"/>
	</g>
	<path class="st4" d="M12.7,21.5c-3.3,5-7.5,9-12.3,11.9c-0.2-0.3,0.8,1.5,0.8,1.5l0.2,0.4c0.5,0.9,0.2,0.3,0.8,1.3
		c1-0.5,7.7-3,13.8-13.1"/>
	
		<linearGradient id="SVGID_3_" gradientUnits="userSpaceOnUse" x1="29.2703" y1="36.256" x2="40.4691" y2="21.5486" gradientTransform="matrix(1 0 0 -1 0 58.1911)">
		<stop  offset="0" style="stop-color:#2DAF4A"/>
		<stop  offset="1" style="stop-color:#205A2D"/>
	</linearGradient>
	<path class="st5" d="M29.9,21.5c3.3,5,7.5,9,12.3,11.9c0.2-0.3-0.8,1.5-0.8,1.5l-0.2,0.4c-0.6,0.9-0.2,0.3-0.7,1.3
		c-1-0.5-7.7-3-13.8-13.1"/>
	<path class="st6" d="M23.5,32.6c6,0.3,11.6,2,16.5,4.6c-0.2,0.3,0.8-1.5,0.8-1.5l0.2-0.4c0.6-0.9,0.2-0.3,0.8-1.3
		c-0.9-0.7-6.4-5.1-18.4-5.3"/>
</g>
</svg>
