<?xml version="1.0" encoding="utf-8"?>
<!-- Generator: Adobe Illustrator 23.0.3, SVG Export Plug-In . SVG Version: 6.00 Build 0)  -->
<svg version="1.1" id="Layer_1" xmlns="http://www.w3.org/2000/svg" xmlns:xlink="http://www.w3.org/1999/xlink" x="0px" y="0px"
	 viewBox="0 0 42.2 38.2" style="enable-background:new 0 0 42.2 38.2;" xml:space="preserve">
<style type="text/css">
	.st0{fill:url(#SVGID_1_);}
	.st1{fill:url(#SVGID_2_);}
	.st2{fill:none;}
	.st3{fill:#D82427;}
	.st4{fill:#109FDA;}
	.st5{fill:url(#SVGID_3_);}
	.st6{fill:#2DAF4A;}
</style>
<g>
	
		<linearGradient id="SVGID_1_" gradientUnits="userSpaceOnUse" x1="0.9652" y1="23.961" x2="19.1462" y2="26.6074" gradientTransform="matrix(1 0 0 -1 0 58.1911)">
		<stop  offset="0" style="stop-color:#004A67"/>
		<stop  offset="1" style="stop-color:#109FDA"/>
	</linearGradient>
	<path class="st0" d="M19.1,32.6c-6,0.3-11.6,2-16.5,4.6c0.2,0.3-0.8-1.5-0.8-1.5l-0.2-0.4C1,34.4,1.4,35,0.8,34
		c0.9-0.7,6.5-5.1,18.4-5.3"/>
	<g>
		
			<linearGradient id="SVGID_2_" gradientUnits="userSpaceOnUse" x1="15.6901" y1="39.8029" x2="22.6398" y2="56.7632" gradientTransform="matrix(1 0 0 -1 0 58.1911)">
			<stop  offset="0" style="stop-color:#D82427"/>
			<stop  offset="1" style="stop-color:#632322"/>
		</linearGradient>
		<path class="st1" d="M15,17.9c2.7-5.3,4.1-10.9,4.2-16.5c-0.4,0,1.7,0,1.7,0h0.5c1.1,0,0.3,0,1.5,0C23,2.4,24,9.4,18.3,19.8"/>
		<line class="st2" x1="21.8" y1="1.3" x2="25.8" y2="19"/>
		<path class="st3" d="M27.8,17.9c-2.7-5.3-4.1-10.9-4.3-16.5c0.4,0-1.7,0-1.7,0h-0.5c-1.1,0-0.3,0-1.5,0c-0.1,1.1-1.2,8.1,4.5,18.5
			"/>
	</g>
	<path class="st4" d="M12.7,21.5c-3.3,5-7.5,9-12.3,11.9c-0.2-0.3,0.8,1.5,0.8,1.5l0.2,0.4c0.5,0.9,0.2,0.3,0.8,1.3
		c1-0.5,7.7-3,13.8-13.1"/>
	
		<linearGradient id="SVGID_3_" gradientUnits="userSpaceOnUse" x1="29.2703" y1="36.256" x2="40.4691" y2="21.5486" gradientTransform="matrix(1 0 0 -1 0 58.1911)">
		<stop  offset="0" style="stop-color:#2DAF4A"/>
		<stop  offset="1" style="stop-color:#205A2D"/>
	</linearGradient>
	<path class="st5" d="M29.9,21.5c3.3,5,7.5,9,12.3,11.9c0.2-0.3-0.8,1.5-0.8,1.5l-0.2,0.4c-0.6,0.9-0.2,0.3-0.7,1.3
		c-1-0.5-7.7-3-13.8-13.1"/>
	<path class="st6" d="M23.5,32.6c6,0.3,11.6,2,16.5,4.6c-0.2,0.3,0.8-1.5,0.8-1.5l0.2-0.4c0.6-0.9,0.2-0.3,0.8-1.3
		c-0.9-0.7-6.4-5.1-18.4-5.3"/>
</g>
</svg>
